<?xml version="1.0" encoding="UTF-8" standalone="no"?>
<!DOCTYPE svg PUBLIC "-//W3C//DTD SVG 1.0//EN" "http://www.w3.org/TR/2001/PR-SVG-20010719/DTD/svg10.dtd">
<svg width="169cm" height="69cm" viewBox="-1919 76 3376 1366" xmlns="http://www.w3.org/2000/svg" xmlns:xlink="http://www.w3.org/1999/xlink">
  <g>
    <rect style="fill: #ffffff" x="527.914" y="1046.98" width="318" height="28"/>
    <rect style="fill: none; fill-opacity:0; stroke-width: 2; stroke: #000000" x="527.914" y="1046.98" width="318" height="28"/>
    <text font-size="16" style="fill: #000000;text-anchor:middle;font-family:sans-serif;font-style:normal;font-weight:700" x="686.914" y="1065.98">AutoPlay</text>
    <rect style="fill: #ffffff" x="527.914" y="1074.98" width="318" height="8"/>
    <rect style="fill: none; fill-opacity:0; stroke-width: 2; stroke: #000000" x="527.914" y="1074.98" width="318" height="8"/>
    <rect style="fill: #ffffff" x="527.914" y="1082.98" width="318" height="52"/>
    <rect style="fill: none; fill-opacity:0; stroke-width: 2; stroke: #000000" x="527.914" y="1082.98" width="318" height="52"/>
    <text font-size="12.8" style="fill: #000000;text-anchor:start;font-family:monospace;font-style:normal;font-weight:normal" x="530.914" y="1096.98">+AutoPlay(filePath:String,player:Player)</text>
    <text font-size="12.8" style="fill: #000000;text-anchor:start;font-family:monospace;font-style:normal;font-weight:normal" x="530.914" y="1112.98">+turn()</text>
    <text font-size="12.8" style="fill: #000000;text-anchor:start;font-family:monospace;font-style:normal;font-weight:normal" x="530.914" y="1128.98">+initialize()</text>
  </g>
  <g>
    <rect style="fill: #ffffff" x="1060.41" y="592.766" width="395" height="28"/>
    <rect style="fill: none; fill-opacity:0; stroke-width: 2; stroke: #000000" x="1060.41" y="592.766" width="395" height="28"/>
    <text font-size="16" style="fill: #000000;text-anchor:middle;font-family:sans-serif;font-style:normal;font-weight:700" x="1257.91" y="611.766">Board</text>
    <rect style="fill: #ffffff" x="1060.41" y="620.766" width="395" height="8"/>
    <rect style="fill: none; fill-opacity:0; stroke-width: 2; stroke: #000000" x="1060.41" y="620.766" width="395" height="8"/>
    <rect style="fill: #ffffff" x="1060.41" y="628.766" width="395" height="164"/>
    <rect style="fill: none; fill-opacity:0; stroke-width: 2; stroke: #000000" x="1060.41" y="628.766" width="395" height="164"/>
    <text font-size="12.8" style="fill: #000000;text-anchor:start;font-family:monospace;font-style:normal;font-weight:normal" x="1063.41" y="642.766">+Board(size:int,String[*]:exits0,String[*]:exits1)</text>
    <text font-size="12.8" style="fill: #000000;text-anchor:start;font-family:monospace;font-style:normal;font-weight:normal" x="1063.41" y="658.766">+&lt;&lt;static&gt;&gt; toCoordinates(i:int,j:int): String</text>
    <text font-size="12.8" style="fill: #000000;text-anchor:start;font-family:monospace;font-style:normal;font-weight:normal" x="1063.41" y="674.766">+&lt;&lt;static&gt;&gt; toX(position:String): char</text>
    <text font-size="12.8" style="fill: #000000;text-anchor:start;font-family:monospace;font-style:normal;font-weight:normal" x="1063.41" y="690.766">+&lt;&lt;static&gt;&gt; toY(position:String): int</text>
    <text font-size="12.8" style="fill: #000000;text-anchor:start;font-family:monospace;font-style:normal;font-weight:normal" x="1063.41" y="706.766">+getSquare(coordinates:String): Square</text>
    <text font-size="12.8" style="fill: #000000;text-anchor:start;font-family:monospace;font-style:normal;font-weight:normal" x="1063.41" y="722.766">+getSize(): int</text>
    <text font-size="12.8" style="fill: #000000;text-anchor:start;font-family:monospace;font-style:normal;font-weight:normal" x="1063.41" y="738.766">+canExit(position:String,ghost:Ghost): boolean</text>
    <text font-size="12.8" style="fill: #000000;text-anchor:start;font-family:monospace;font-style:normal;font-weight:normal" x="1063.41" y="754.766">+capture(ghost:Ghost)</text>
    <text font-size="12.8" style="fill: #000000;text-anchor:start;font-family:monospace;font-style:normal;font-weight:normal" x="1063.41" y="770.766">+exit(ghost:Ghost)</text>
    <text font-size="12.8" style="fill: #000000;text-anchor:start;font-family:monospace;font-style:normal;font-weight:normal" x="1063.41" y="786.766">+removeGhost(ghost:Ghost)</text>
  </g>
  <g>
    <rect style="fill: #ffffff" x="-1742.32" y="1344.55" width="333.4" height="28"/>
    <rect style="fill: none; fill-opacity:0; stroke-width: 2; stroke: #000000" x="-1742.32" y="1344.55" width="333.4" height="28"/>
    <text font-size="16" style="fill: #000000;text-anchor:middle;font-family:sans-serif;font-style:normal;font-weight:normal" x="-1575.62" y="1363.55">CaptureRule</text>
    <rect style="fill: #ffffff" x="-1742.32" y="1372.55" width="333.4" height="8"/>
    <rect style="fill: none; fill-opacity:0; stroke-width: 2; stroke: #000000" x="-1742.32" y="1372.55" width="333.4" height="8"/>
    <rect style="fill: #ffffff" x="-1742.32" y="1380.55" width="333.4" height="36"/>
    <rect style="fill: none; fill-opacity:0; stroke-width: 2; stroke: #000000" x="-1742.32" y="1380.55" width="333.4" height="36"/>
    <text font-size="12.8" style="fill: #000000;text-anchor:start;font-family:monospace;font-style:normal;font-weight:normal" x="-1739.32" y="1394.55">+requestCapture(square:String,ghost:Ghost,</text>
    <text font-size="12.8" style="fill: #000000;text-anchor:start;font-family:monospace;font-style:normal;font-weight:normal" x="-1739.32" y="1410.55">                player:Player): boolean</text>
  </g>
  <g>
    <rect style="fill: #ffffff" x="-1643.86" y="1109.7" width="187.1" height="28"/>
    <rect style="fill: none; fill-opacity:0; stroke-width: 2; stroke: #000000" x="-1643.86" y="1109.7" width="187.1" height="28"/>
    <text font-size="16" style="fill: #000000;text-anchor:middle;font-family:sans-serif;font-style:normal;font-weight:normal" x="-1550.31" y="1128.7">Extension</text>
    <rect style="fill: #ffffff" x="-1643.86" y="1137.7" width="187.1" height="8"/>
    <rect style="fill: none; fill-opacity:0; stroke-width: 2; stroke: #000000" x="-1643.86" y="1137.7" width="187.1" height="8"/>
    <rect style="fill: #ffffff" x="-1643.86" y="1145.7" width="187.1" height="36"/>
    <rect style="fill: none; fill-opacity:0; stroke-width: 2; stroke: #000000" x="-1643.86" y="1145.7" width="187.1" height="36"/>
    <text font-size="12.8" style="fill: #000000;text-anchor:start;font-family:monospace;font-style:normal;font-weight:normal" x="-1640.86" y="1159.7">+Extension(name:String)</text>
    <text font-size="12.8" style="fill: #000000;text-anchor:start;font-family:monospace;font-style:normal;font-weight:normal" x="-1640.86" y="1175.7">+load()</text>
  </g>
  <g>
    <rect style="fill: #ffffff" x="295.086" y="208.93" width="379.6" height="28"/>
    <rect style="fill: none; fill-opacity:0; stroke-width: 2; stroke: #000000" x="295.086" y="208.93" width="379.6" height="28"/>
    <text font-size="16" style="fill: #000000;text-anchor:middle;font-family:sans-serif;font-style:normal;font-weight:normal" x="484.886" y="227.93">Game</text>
    <rect style="fill: #ffffff" x="295.086" y="236.93" width="379.6" height="8"/>
    <rect style="fill: none; fill-opacity:0; stroke-width: 2; stroke: #000000" x="295.086" y="236.93" width="379.6" height="8"/>
    <rect style="fill: #ffffff" x="295.086" y="244.93" width="379.6" height="164"/>
    <rect style="fill: none; fill-opacity:0; stroke-width: 2; stroke: #000000" x="295.086" y="244.93" width="379.6" height="164"/>
    <text font-size="12.8" style="fill: #000000;text-anchor:start;font-family:monospace;font-style:normal;font-weight:normal" x="298.086" y="258.93">+Game(cheatMode:boolean,extensions:Extension[*])</text>
    <text font-size="12.8" style="fill: #000000;text-anchor:start;font-family:monospace;font-style:normal;font-weight:normal" x="298.086" y="274.93">+isCheatModeEnabled(): boolean</text>
    <text font-size="12.8" style="fill: #000000;text-anchor:start;font-family:monospace;font-style:normal;font-weight:normal" x="298.086" y="290.93">+getFactory(): GhostFactory</text>
    <text font-size="12.8" style="fill: #000000;text-anchor:start;font-family:monospace;font-style:normal;font-weight:normal" x="298.086" y="306.93">+getPlayer(id:int): Player</text>
    <text font-size="12.8" style="fill: #000000;text-anchor:start;font-family:monospace;font-style:normal;font-weight:normal" x="298.086" y="322.93">+getRuleBook(): RuleBook</text>
    <text font-size="12.8" style="fill: #000000;text-anchor:start;font-family:monospace;font-style:normal;font-weight:normal" x="298.086" y="338.93">+&lt;&lt;static&gt;&gt; getCurrent(): Game</text>
    <text font-size="12.8" style="fill: #000000;text-anchor:start;font-family:monospace;font-style:normal;font-weight:normal" x="298.086" y="354.93">+run()</text>
    <text font-size="12.8" style="fill: #000000;text-anchor:start;font-family:monospace;font-style:normal;font-weight:normal" x="298.086" y="370.93">#updateExits()</text>
    <text font-size="12.8" style="fill: #000000;text-anchor:start;font-family:monospace;font-style:normal;font-weight:normal" x="298.086" y="386.93">#isGameOver(): boolean</text>
    <text font-size="12.8" style="fill: #000000;text-anchor:start;font-family:monospace;font-style:normal;font-weight:normal" x="298.086" y="402.93">#load()</text>
  </g>
  <g>
    <rect style="fill: #ffffff" x="-926.518" y="1336.12" width="179.4" height="28"/>
    <rect style="fill: none; fill-opacity:0; stroke-width: 2; stroke: #000000" x="-926.518" y="1336.12" width="179.4" height="28"/>
    <text font-size="16" style="fill: #000000;text-anchor:middle;font-family:sans-serif;font-style:normal;font-weight:normal" x="-836.818" y="1355.12">GameEndRule</text>
    <rect style="fill: #ffffff" x="-926.518" y="1364.12" width="179.4" height="8"/>
    <rect style="fill: none; fill-opacity:0; stroke-width: 2; stroke: #000000" x="-926.518" y="1364.12" width="179.4" height="8"/>
    <rect style="fill: #ffffff" x="-926.518" y="1372.12" width="179.4" height="36"/>
    <rect style="fill: none; fill-opacity:0; stroke-width: 2; stroke: #000000" x="-926.518" y="1372.12" width="179.4" height="36"/>
    <text font-size="12.8" style="fill: #000000;text-anchor:start;font-family:monospace;font-style:normal;font-weight:normal" x="-923.518" y="1386.12">+isGameOver(): boolean</text>
    <text font-size="12.8" style="fill: #000000;text-anchor:start;font-family:monospace;font-style:normal;font-weight:normal" x="-923.518" y="1402.12">+getWinner(): Player</text>
  </g>
  <g>
    <rect style="fill: #ffffff" x="68.0078" y="995.332" width="379.6" height="28"/>
    <rect style="fill: none; fill-opacity:0; stroke-width: 2; stroke: #000000" x="68.0078" y="995.332" width="379.6" height="28"/>
    <text font-size="16" style="fill: #000000;text-anchor:middle;font-family:sans-serif;font-style:normal;font-weight:700" x="257.808" y="1014.33">Ghost</text>
    <rect style="fill: #ffffff" x="68.0078" y="1023.33" width="379.6" height="8"/>
    <rect style="fill: none; fill-opacity:0; stroke-width: 2; stroke: #000000" x="68.0078" y="1023.33" width="379.6" height="8"/>
    <rect style="fill: #ffffff" x="68.0078" y="1031.33" width="379.6" height="68"/>
    <rect style="fill: none; fill-opacity:0; stroke-width: 2; stroke: #000000" x="68.0078" y="1031.33" width="379.6" height="68"/>
    <text font-size="12.8" style="fill: #000000;text-anchor:start;font-family:monospace;font-style:normal;font-weight:normal" x="71.0078" y="1045.33">+Ghost(isGood:boolean,type:String,player:Player)</text>
    <text font-size="12.8" style="fill: #000000;text-anchor:start;font-family:monospace;font-style:normal;font-weight:normal" x="71.0078" y="1061.33">+move(coordinates:String)</text>
    <text font-size="12.8" style="fill: #000000;text-anchor:start;font-family:monospace;font-style:normal;font-weight:normal" x="71.0078" y="1077.33">+getPlayer(): Player</text>
    <text font-size="12.8" style="fill: #000000;text-anchor:start;font-family:monospace;font-style:normal;font-weight:normal" x="71.0078" y="1093.33">+getType(): String</text>
  </g>
  <g>
    <rect style="fill: #ffffff" x="-521.982" y="531.462" width="472" height="28"/>
    <rect style="fill: none; fill-opacity:0; stroke-width: 2; stroke: #000000" x="-521.982" y="531.462" width="472" height="28"/>
    <text font-size="16" style="fill: #000000;text-anchor:middle;font-family:sans-serif;font-style:normal;font-weight:700" x="-285.982" y="550.462">GhostFactory</text>
    <rect style="fill: #ffffff" x="-521.982" y="559.462" width="472" height="8"/>
    <rect style="fill: none; fill-opacity:0; stroke-width: 2; stroke: #000000" x="-521.982" y="559.462" width="472" height="8"/>
    <rect style="fill: #ffffff" x="-521.982" y="567.462" width="472" height="68"/>
    <rect style="fill: none; fill-opacity:0; stroke-width: 2; stroke: #000000" x="-521.982" y="567.462" width="472" height="68"/>
    <text font-size="12.8" style="fill: #000000;text-anchor:start;font-family:monospace;font-style:normal;font-weight:normal" x="-518.982" y="581.462">+&lt;&lt;static&gt;&gt; createghost(ghostType:String,</text>
    <text font-size="12.8" style="fill: #000000;text-anchor:start;font-family:monospace;font-style:normal;font-weight:normal" x="-518.982" y="597.462">                        isGood:boolean,player:Player): Ghost</text>
    <text font-size="12.8" style="fill: #000000;text-anchor:start;font-family:monospace;font-style:normal;font-weight:normal" x="-518.982" y="613.462">+&lt;&lt;static&gt;&gt; addghostType(ghostType:String)</text>
    <text font-size="12.8" style="fill: #000000;text-anchor:start;font-family:monospace;font-style:normal;font-weight:normal" x="-518.982" y="629.462">+&lt;&lt;static&gt;&gt; getTypes(): String[*]</text>
  </g>
  <g>
    <rect style="fill: #ffffff" x="-673.488" y="1336.89" width="487.4" height="28"/>
    <rect style="fill: none; fill-opacity:0; stroke-width: 2; stroke: #000000" x="-673.488" y="1336.89" width="487.4" height="28"/>
    <text font-size="16" style="fill: #000000;text-anchor:middle;font-family:sans-serif;font-style:normal;font-weight:normal" x="-429.788" y="1355.89">InitializationRule</text>
    <rect style="fill: #ffffff" x="-673.488" y="1364.89" width="487.4" height="8"/>
    <rect style="fill: none; fill-opacity:0; stroke-width: 2; stroke: #000000" x="-673.488" y="1364.89" width="487.4" height="8"/>
    <rect style="fill: #ffffff" x="-673.488" y="1372.89" width="487.4" height="68"/>
    <rect style="fill: none; fill-opacity:0; stroke-width: 2; stroke: #000000" x="-673.488" y="1372.89" width="487.4" height="68"/>
    <text font-size="12.8" style="fill: #000000;text-anchor:start;font-family:monospace;font-style:normal;font-weight:normal" x="-670.488" y="1386.89">+requestInitialization(player:Player,ghost:Ghost,</text>
    <text font-size="12.8" style="fill: #000000;text-anchor:start;font-family:monospace;font-style:normal;font-weight:normal" x="-670.488" y="1402.89">                       position:String): boolean</text>
    <text font-size="12.8" style="fill: #000000;text-anchor:start;font-family:monospace;font-style:normal;font-weight:normal" x="-670.488" y="1418.89">+requestInitialization(player:Player,position:String): boolean</text>
    <text font-size="12.8" style="fill: #000000;text-anchor:start;font-family:monospace;font-style:normal;font-weight:normal" x="-670.488" y="1434.89">+isReady(player:Player): boolean</text>
  </g>
  <g>
    <rect style="fill: #ffffff" x="-1373.78" y="1339.41" width="364.2" height="28"/>
    <rect style="fill: none; fill-opacity:0; stroke-width: 2; stroke: #000000" x="-1373.78" y="1339.41" width="364.2" height="28"/>
    <text font-size="16" style="fill: #000000;text-anchor:middle;font-family:sans-serif;font-style:normal;font-weight:normal" x="-1191.68" y="1358.41">MovementRule</text>
    <rect style="fill: #ffffff" x="-1373.78" y="1367.41" width="364.2" height="8"/>
    <rect style="fill: none; fill-opacity:0; stroke-width: 2; stroke: #000000" x="-1373.78" y="1367.41" width="364.2" height="8"/>
    <rect style="fill: #ffffff" x="-1373.78" y="1375.41" width="364.2" height="36"/>
    <rect style="fill: none; fill-opacity:0; stroke-width: 2; stroke: #000000" x="-1373.78" y="1375.41" width="364.2" height="36"/>
    <text font-size="12.8" style="fill: #000000;text-anchor:start;font-family:monospace;font-style:normal;font-weight:normal" x="-1370.78" y="1389.41">+requestmovement(player:Player,squareA:String,</text>
    <text font-size="12.8" style="fill: #000000;text-anchor:start;font-family:monospace;font-style:normal;font-weight:normal" x="-1370.78" y="1405.41">                 squareB:String): booolean</text>
  </g>
  <g>
    <rect style="fill: #ffffff" x="341.474" y="564.08" width="302.6" height="28"/>
    <rect style="fill: none; fill-opacity:0; stroke-width: 2; stroke: #000000" x="341.474" y="564.08" width="302.6" height="28"/>
    <text font-size="16" style="fill: #000000;text-anchor:middle;font-family:sans-serif;font-style:normal;font-weight:700" x="492.774" y="583.08">Player</text>
    <rect style="fill: #ffffff" x="341.474" y="592.08" width="302.6" height="8"/>
    <rect style="fill: none; fill-opacity:0; stroke-width: 2; stroke: #000000" x="341.474" y="592.08" width="302.6" height="8"/>
    <rect style="fill: #ffffff" x="341.474" y="600.08" width="302.6" height="260"/>
    <rect style="fill: none; fill-opacity:0; stroke-width: 2; stroke: #000000" x="341.474" y="600.08" width="302.6" height="260"/>
    <text font-size="12.8" style="fill: #000000;text-anchor:start;font-family:monospace;font-style:normal;font-weight:normal" x="344.474" y="614.08">+Player(name:String)</text>
    <text font-size="12.8" style="fill: #000000;text-anchor:start;font-family:monospace;font-style:normal;font-weight:normal" x="344.474" y="630.08">+setName(name:String)</text>
    <text font-size="12.8" style="fill: #000000;text-anchor:start;font-family:monospace;font-style:normal;font-weight:normal" x="344.474" y="646.08">+setAutoplay(autoPlay:Autoplay)</text>
    <text font-size="12.8" style="fill: #000000;text-anchor:start;font-family:monospace;font-style:normal;font-weight:normal" x="344.474" y="662.08">+isAuto(): boolean</text>
    <text font-size="12.8" style="fill: #000000;text-anchor:start;font-family:monospace;font-style:normal;font-weight:normal" x="344.474" y="678.08">+getAutoplay(): AutoPlay</text>
    <text font-size="12.8" style="fill: #000000;text-anchor:start;font-family:monospace;font-style:normal;font-weight:normal" x="344.474" y="694.08">+getGhosts(): Ghost[*]</text>
    <text font-size="12.8" style="fill: #000000;text-anchor:start;font-family:monospace;font-style:normal;font-weight:normal" x="344.474" y="710.08">+getGhosts(isGood:boolean): Ghost[*]</text>
    <text font-size="12.8" style="fill: #000000;text-anchor:start;font-family:monospace;font-style:normal;font-weight:normal" x="344.474" y="726.08">+getExited(): Ghost[*]</text>
    <text font-size="12.8" style="fill: #000000;text-anchor:start;font-family:monospace;font-style:normal;font-weight:normal" x="344.474" y="742.08">+getGhosts(ghostType:String): Ghost[*]</text>
    <text font-size="12.8" style="fill: #000000;text-anchor:start;font-family:monospace;font-style:normal;font-weight:normal" x="344.474" y="758.08">+getCaptured(): Ghost[*]</text>
    <text font-size="12.8" style="fill: #000000;text-anchor:start;font-family:monospace;font-style:normal;font-weight:normal" x="344.474" y="774.08">+getPlayingGhosts(): Ghost[*]</text>
    <text font-size="12.8" style="fill: #000000;text-anchor:start;font-family:monospace;font-style:normal;font-weight:normal" x="344.474" y="790.08">+addGhost(ghost:Ghost)</text>
    <text font-size="12.8" style="fill: #000000;text-anchor:start;font-family:monospace;font-style:normal;font-weight:normal" x="344.474" y="806.08">+removeGhost(ghost:Ghost)</text>
    <text font-size="12.8" style="fill: #000000;text-anchor:start;font-family:monospace;font-style:normal;font-weight:normal" x="344.474" y="822.08">+hasGhost(ghost:Ghost): boolean</text>
    <text font-size="12.8" style="fill: #000000;text-anchor:start;font-family:monospace;font-style:normal;font-weight:normal" x="344.474" y="838.08">+captureGhost(ghost:Ghost)</text>
    <text font-size="12.8" style="fill: #000000;text-anchor:start;font-family:monospace;font-style:normal;font-weight:normal" x="344.474" y="854.08">+exitGhost(ghost:ghost)</text>
  </g>
  <g>
    <rect style="fill: #ffffff" x="-1079.49" y="1098.92" width="264.1" height="28"/>
    <rect style="fill: none; fill-opacity:0; stroke-width: 2; stroke: #000000" x="-1079.49" y="1098.92" width="264.1" height="28"/>
    <text font-size="16" style="fill: #000000;text-anchor:middle;font-family:sans-serif;font-style:normal;font-weight:normal" x="-947.436" y="1117.92">Rule</text>
    <rect style="fill: #ffffff" x="-1079.49" y="1126.92" width="264.1" height="8"/>
    <rect style="fill: none; fill-opacity:0; stroke-width: 2; stroke: #000000" x="-1079.49" y="1126.92" width="264.1" height="8"/>
    <rect style="fill: #ffffff" x="-1079.49" y="1134.92" width="264.1" height="68"/>
    <rect style="fill: none; fill-opacity:0; stroke-width: 2; stroke: #000000" x="-1079.49" y="1134.92" width="264.1" height="68"/>
    <text font-size="12.8" style="fill: #000000;text-anchor:start;font-family:monospace;font-style:normal;font-weight:normal" x="-1076.49" y="1148.92">+Rule(priority:int)</text>
    <text font-size="12.8" style="fill: #000000;text-anchor:start;font-family:monospace;font-style:normal;font-weight:normal" x="-1076.49" y="1164.92">+getPriority(): int</text>
    <text font-size="12.8" style="fill: #000000;text-anchor:start;font-family:monospace;font-style:normal;font-weight:normal" x="-1076.49" y="1180.92">+prevailsOver(rule:Rule): boolean</text>
    <text font-size="12.8" style="fill: #000000;text-anchor:start;font-family:monospace;font-style:normal;font-weight:normal" x="-1076.49" y="1196.92">+samePriority(rule:Rule): boolean</text>
  </g>
  <g>
    <rect style="fill: #ffffff" x="-1191.71" y="496.402" width="487.4" height="28"/>
    <rect style="fill: none; fill-opacity:0; stroke-width: 2; stroke: #000000" x="-1191.71" y="496.402" width="487.4" height="28"/>
    <text font-size="16" style="fill: #000000;text-anchor:middle;font-family:sans-serif;font-style:normal;font-weight:700" x="-948.006" y="515.402">RuleBook</text>
    <rect style="fill: #ffffff" x="-1191.71" y="524.402" width="487.4" height="8"/>
    <rect style="fill: none; fill-opacity:0; stroke-width: 2; stroke: #000000" x="-1191.71" y="524.402" width="487.4" height="8"/>
    <rect style="fill: #ffffff" x="-1191.71" y="532.402" width="487.4" height="196"/>
    <rect style="fill: none; fill-opacity:0; stroke-width: 2; stroke: #000000" x="-1191.71" y="532.402" width="487.4" height="196"/>
    <text font-size="12.8" style="fill: #000000;text-anchor:start;font-family:monospace;font-style:normal;font-weight:normal" x="-1188.71" y="546.402">+addRule(rule:Rule)</text>
    <text font-size="12.8" style="fill: #000000;text-anchor:start;font-family:monospace;font-style:normal;font-weight:normal" x="-1188.71" y="562.402">+requestInitialization(player:Player,ghost:Ghost,</text>
    <text font-size="12.8" style="fill: #000000;text-anchor:start;font-family:monospace;font-style:normal;font-weight:normal" x="-1188.71" y="578.402">                       position:String): boolean</text>
    <text font-size="12.8" style="fill: #000000;text-anchor:start;font-family:monospace;font-style:normal;font-weight:normal" x="-1188.71" y="594.402">+requestInitialization(player:Player,position:String): boolean</text>
    <text font-size="12.8" style="fill: #000000;text-anchor:start;font-family:monospace;font-style:normal;font-weight:normal" x="-1188.71" y="610.402">+requestMovement(player:Player,squareA:String,</text>
    <text font-size="12.8" style="fill: #000000;text-anchor:start;font-family:monospace;font-style:normal;font-weight:normal" x="-1188.71" y="626.402">                 squareB:String): boolean</text>
    <text font-size="12.8" style="fill: #000000;text-anchor:start;font-family:monospace;font-style:normal;font-weight:normal" x="-1188.71" y="642.402">+isGameOver(): boolean</text>
    <text font-size="12.8" style="fill: #000000;text-anchor:start;font-family:monospace;font-style:normal;font-weight:normal" x="-1188.71" y="658.402">+getWinner(): Player</text>
    <text font-size="12.8" style="fill: #000000;text-anchor:start;font-family:monospace;font-style:normal;font-weight:normal" x="-1188.71" y="674.402">+getBoard(): Board</text>
    <text font-size="12.8" style="fill: #000000;text-anchor:start;font-family:monospace;font-style:normal;font-weight:normal" x="-1188.71" y="690.402">+isRead(player:Player): boolean</text>
    <text font-size="12.8" style="fill: #000000;text-anchor:start;font-family:monospace;font-style:normal;font-weight:normal" x="-1188.71" y="706.402">+requestCapture(player:Player,square:String,</text>
    <text font-size="12.8" style="fill: #000000;text-anchor:start;font-family:monospace;font-style:normal;font-weight:normal" x="-1188.71" y="722.402">                ghost:Ghost): boolean</text>
  </g>
  <g>
    <rect style="fill: #ffffff" x="-1028.75" y="871.458" width="164" height="28"/>
    <rect style="fill: none; fill-opacity:0; stroke-width: 2; stroke: #000000" x="-1028.75" y="871.458" width="164" height="28"/>
    <text font-size="16" style="fill: #000000;text-anchor:middle;font-family:sans-serif;font-style:normal;font-weight:700" x="-946.748" y="890.458">RuleSet</text>
    <rect style="fill: #ffffff" x="-1028.75" y="899.458" width="164" height="8"/>
    <rect style="fill: none; fill-opacity:0; stroke-width: 2; stroke: #000000" x="-1028.75" y="899.458" width="164" height="8"/>
    <rect style="fill: #ffffff" x="-1028.75" y="907.458" width="164" height="36"/>
    <rect style="fill: none; fill-opacity:0; stroke-width: 2; stroke: #000000" x="-1028.75" y="907.458" width="164" height="36"/>
    <text font-size="12.8" style="fill: #000000;text-anchor:start;font-family:monospace;font-style:normal;font-weight:normal" x="-1025.75" y="921.458">+add(rule:T)</text>
    <text font-size="12.8" style="fill: #000000;text-anchor:start;font-family:monospace;font-style:normal;font-weight:normal" x="-1025.75" y="937.458">+getTopRules(): T[*]</text>
    <rect style="fill: #ffffff" x="-910.748" y="857.458" width="115.8" height="20"/>
    <rect style="fill: none; fill-opacity:0; stroke-width: 2; stroke-dasharray: 6; stroke: #000000" x="-910.748" y="857.458" width="115.8" height="20"/>
    <text font-size="12.8" style="fill: #000000;text-anchor:start;font-family:monospace;font-style:normal;font-weight:normal" x="-904.748" y="871.458">T:extends Rule</text>
  </g>
  <g>
    <rect style="fill: #ffffff" x="1080.39" y="917.576" width="356.5" height="28"/>
    <rect style="fill: none; fill-opacity:0; stroke-width: 2; stroke: #000000" x="1080.39" y="917.576" width="356.5" height="28"/>
    <text font-size="16" style="fill: #000000;text-anchor:middle;font-family:sans-serif;font-style:normal;font-weight:700" x="1258.64" y="936.576">Square</text>
    <rect style="fill: #ffffff" x="1080.39" y="945.576" width="356.5" height="8"/>
    <rect style="fill: none; fill-opacity:0; stroke-width: 2; stroke: #000000" x="1080.39" y="945.576" width="356.5" height="8"/>
    <rect style="fill: #ffffff" x="1080.39" y="953.576" width="356.5" height="116"/>
    <rect style="fill: none; fill-opacity:0; stroke-width: 2; stroke: #000000" x="1080.39" y="953.576" width="356.5" height="116"/>
    <text font-size="12.8" style="fill: #000000;text-anchor:start;font-family:monospace;font-style:normal;font-weight:normal" x="1083.39" y="967.576">+Square(coordinates:String,playerExit:Player)</text>
    <text font-size="12.8" style="fill: #000000;text-anchor:start;font-family:monospace;font-style:normal;font-weight:normal" x="1083.39" y="983.576">+getGhost(): Ghost</text>
    <text font-size="12.8" style="fill: #000000;text-anchor:start;font-family:monospace;font-style:normal;font-weight:normal" x="1083.39" y="999.576">+putGost(ghost:Ghost)</text>
    <text font-size="12.8" style="fill: #000000;text-anchor:start;font-family:monospace;font-style:normal;font-weight:normal" x="1083.39" y="1015.58">+removeGhost()</text>
    <text font-size="12.8" style="fill: #000000;text-anchor:start;font-family:monospace;font-style:normal;font-weight:normal" x="1083.39" y="1031.58">+getX(): char</text>
    <text font-size="12.8" style="fill: #000000;text-anchor:start;font-family:monospace;font-style:normal;font-weight:normal" x="1083.39" y="1047.58">+getY(): int</text>
    <text font-size="12.8" style="fill: #000000;text-anchor:start;font-family:monospace;font-style:normal;font-weight:normal" x="1083.39" y="1063.58">+getPlayerExit(): Player</text>
  </g>
  <g>
    <polyline style="fill: none; fill-opacity:0; stroke-width: 2; stroke: #000000" points="484.886,435.108 484.886,507.848 1257.91,507.848 1257.91,591.76 "/>
    <polygon style="fill: #000000" points="484.886,409.936 489.686,423.936 484.886,437.936 480.086,423.936 "/>
    <polygon style="fill: none; fill-opacity:0; stroke-width: 2; stroke: #000000" points="484.886,409.936 489.686,423.936 484.886,437.936 480.086,423.936 "/>
    <text font-size="12.7998" style="fill: #000000;text-anchor:middle;font-family:monospace;font-style:normal;font-weight:normal" x="871.399" y="504.848"></text>
    <text font-size="12.7998" style="fill: #000000;text-anchor:start;font-family:monospace;font-style:normal;font-weight:normal" x="495.886" y="421.936">1</text>
    <text font-size="12.7998" style="fill: #000000;text-anchor:start;font-family:monospace;font-style:normal;font-weight:normal" x="1261.91" y="587.76">1</text>
  </g>
  <g>
    <polyline style="fill: none; fill-opacity:0; stroke-width: 2; stroke: #000000" points="484.886,435.108 484.886,493.504 492.774,493.504 492.774,563.071 "/>
    <polygon style="fill: #000000" points="484.886,409.936 489.686,423.936 484.886,437.936 480.086,423.936 "/>
    <polygon style="fill: none; fill-opacity:0; stroke-width: 2; stroke: #000000" points="484.886,409.936 489.686,423.936 484.886,437.936 480.086,423.936 "/>
    <text font-size="12.7998" style="fill: #000000;text-anchor:middle;font-family:monospace;font-style:normal;font-weight:normal" x="488.83" y="490.504"></text>
    <text font-size="12.7998" style="fill: #000000;text-anchor:start;font-family:monospace;font-style:normal;font-weight:normal" x="495.886" y="421.936">1</text>
    <text font-size="12.7998" style="fill: #000000;text-anchor:start;font-family:monospace;font-style:normal;font-weight:normal" x="496.774" y="559.071">1</text>
  </g>
  <g>
    <polyline style="fill: none; fill-opacity:0; stroke-width: 2; stroke: #000000" points="484.886,435.108 484.886,477.196 -285.982,477.196 -285.982,530.456 "/>
    <polygon style="fill: #000000" points="484.886,409.936 489.686,423.936 484.886,437.936 480.086,423.936 "/>
    <polygon style="fill: none; fill-opacity:0; stroke-width: 2; stroke: #000000" points="484.886,409.936 489.686,423.936 484.886,437.936 480.086,423.936 "/>
    <text font-size="12.7998" style="fill: #000000;text-anchor:middle;font-family:monospace;font-style:normal;font-weight:normal" x="99.452" y="474.196"></text>
    <text font-size="12.7998" style="fill: #000000;text-anchor:start;font-family:monospace;font-style:normal;font-weight:normal" x="495.886" y="421.936">1</text>
    <text font-size="12.7998" style="fill: #000000;text-anchor:start;font-family:monospace;font-style:normal;font-weight:normal" x="-281.982" y="526.456">1</text>
  </g>
  <g>
    <polyline style="fill: none; fill-opacity:0; stroke-width: 2; stroke: #000000" points="484.886,435.108 484.886,459.666 -948.006,459.666 -948.006,495.395 "/>
    <polygon style="fill: #000000" points="484.886,409.936 489.686,423.936 484.886,437.936 480.086,423.936 "/>
    <polygon style="fill: none; fill-opacity:0; stroke-width: 2; stroke: #000000" points="484.886,409.936 489.686,423.936 484.886,437.936 480.086,423.936 "/>
    <text font-size="12.7998" style="fill: #000000;text-anchor:middle;font-family:monospace;font-style:normal;font-weight:normal" x="-231.56" y="456.666"></text>
    <text font-size="12.7998" style="fill: #000000;text-anchor:start;font-family:monospace;font-style:normal;font-weight:normal" x="495.886" y="421.936">1</text>
    <text font-size="12.7998" style="fill: #000000;text-anchor:start;font-family:monospace;font-style:normal;font-weight:normal" x="-944.006" y="491.395">1</text>
  </g>
  <g>
    <polyline style="fill: none; fill-opacity:0; stroke-width: 2; stroke: #000000" points="-948.006,754.581 -948.006,799.93 -946.748,799.93 -946.748,856.452 "/>
    <polygon style="fill: #000000" points="-948.006,729.409 -943.206,743.409 -948.006,757.409 -952.806,743.409 "/>
    <polygon style="fill: none; fill-opacity:0; stroke-width: 2; stroke: #000000" points="-948.006,729.409 -943.206,743.409 -948.006,757.409 -952.806,743.409 "/>
    <text font-size="12.7998" style="fill: #000000;text-anchor:middle;font-family:monospace;font-style:normal;font-weight:normal" x="-947.377" y="796.93"></text>
    <text font-size="12.7998" style="fill: #000000;text-anchor:start;font-family:monospace;font-style:normal;font-weight:normal" x="-937.006" y="741.409">1</text>
    <text font-size="12.7998" style="fill: #000000;text-anchor:start;font-family:monospace;font-style:normal;font-weight:normal" x="-942.748" y="852.452">4</text>
  </g>
  <g>
    <polyline style="fill: none; fill-opacity:0; stroke-width: 2; stroke: #000000" points="-946.748,969.639 -946.748,1028.19 -947.436,1028.19 -947.436,1097.92 "/>
    <polygon style="fill: #000000" points="-946.748,944.467 -941.948,958.467 -946.748,972.467 -951.548,958.467 "/>
    <polygon style="fill: none; fill-opacity:0; stroke-width: 2; stroke: #000000" points="-946.748,944.467 -941.948,958.467 -946.748,972.467 -951.548,958.467 "/>
    <text font-size="12.7998" style="fill: #000000;text-anchor:middle;font-family:monospace;font-style:normal;font-weight:normal" x="-947.092" y="1025.19"></text>
    <text font-size="12.7998" style="fill: #000000;text-anchor:start;font-family:monospace;font-style:normal;font-weight:normal" x="-935.748" y="956.467">1</text>
    <text font-size="12.7998" style="fill: #000000;text-anchor:start;font-family:monospace;font-style:normal;font-weight:normal" x="-943.436" y="1093.92">*</text>
  </g>
  <g>
    <polyline style="fill: none; fill-opacity:0; stroke-width: 2; stroke: #000000" points="-947.436,1222.16 -947.436,1279.16 -1191.68,1279.16 -1191.68,1338.4 "/>
    <polygon style="fill: #ffffff" points="-939.436,1222.16 -947.436,1206.16 -955.436,1222.16 "/>
    <polygon style="fill: none; fill-opacity:0; stroke-width: 2; stroke: #000000" points="-939.436,1222.16 -947.436,1206.16 -955.436,1222.16 "/>
  </g>
  <g>
    <polyline style="fill: none; fill-opacity:0; stroke-width: 2; stroke: #000000" points="-947.436,1222.16 -947.436,1277.52 -836.818,1277.52 -836.818,1335.11 "/>
    <polygon style="fill: #ffffff" points="-939.436,1222.16 -947.436,1206.16 -955.436,1222.16 "/>
    <polygon style="fill: none; fill-opacity:0; stroke-width: 2; stroke: #000000" points="-939.436,1222.16 -947.436,1206.16 -955.436,1222.16 "/>
  </g>
  <g>
    <polyline style="fill: none; fill-opacity:0; stroke-width: 2; stroke: #000000" points="-947.436,1222.16 -947.436,1277.91 -429.788,1277.91 -429.788,1335.88 "/>
    <polygon style="fill: #ffffff" points="-939.436,1222.16 -947.436,1206.16 -955.436,1222.16 "/>
    <polygon style="fill: none; fill-opacity:0; stroke-width: 2; stroke: #000000" points="-939.436,1222.16 -947.436,1206.16 -955.436,1222.16 "/>
  </g>
  <g>
    <polyline style="fill: none; fill-opacity:0; stroke-width: 2; stroke: #000000" points="-947.436,1222.16 -947.436,1281.73 -1575.62,1281.73 -1575.62,1343.54 "/>
    <polygon style="fill: #ffffff" points="-939.436,1222.16 -947.436,1206.16 -955.436,1222.16 "/>
    <polygon style="fill: none; fill-opacity:0; stroke-width: 2; stroke: #000000" points="-939.436,1222.16 -947.436,1206.16 -955.436,1222.16 "/>
  </g>
  <g>
    <polyline style="fill: none; fill-opacity:0; stroke-width: 2; stroke: #000000" points="492.774,886.261 492.774,960.53 686.914,960.53 686.914,1045.97 "/>
    <polygon style="fill: #000000" points="492.774,861.089 497.574,875.089 492.774,889.089 487.974,875.089 "/>
    <polygon style="fill: none; fill-opacity:0; stroke-width: 2; stroke: #000000" points="492.774,861.089 497.574,875.089 492.774,889.089 487.974,875.089 "/>
    <text font-size="12.7998" style="fill: #000000;text-anchor:middle;font-family:monospace;font-style:normal;font-weight:normal" x="589.844" y="957.53"></text>
    <text font-size="12.7998" style="fill: #000000;text-anchor:start;font-family:monospace;font-style:normal;font-weight:normal" x="503.774" y="873.089">1</text>
    <text font-size="12.7998" style="fill: #000000;text-anchor:start;font-family:monospace;font-style:normal;font-weight:normal" x="690.914" y="1041.97">0..1</text>
  </g>
  <g>
    <polyline style="fill: none; fill-opacity:0; stroke-width: 2; stroke: #000000" points="492.774,886.261 492.774,934.707 257.808,934.707 257.808,994.326 "/>
    <polygon style="fill: #000000" points="492.774,861.089 497.574,875.089 492.774,889.089 487.974,875.089 "/>
    <polygon style="fill: none; fill-opacity:0; stroke-width: 2; stroke: #000000" points="492.774,861.089 497.574,875.089 492.774,889.089 487.974,875.089 "/>
    <text font-size="12.7998" style="fill: #000000;text-anchor:middle;font-family:monospace;font-style:normal;font-weight:normal" x="375.291" y="931.707"></text>
    <text font-size="12.7998" style="fill: #000000;text-anchor:start;font-family:monospace;font-style:normal;font-weight:normal" x="503.774" y="873.089"> 1</text>
    <text font-size="12.7998" style="fill: #000000;text-anchor:start;font-family:monospace;font-style:normal;font-weight:normal" x="503.774" y="889.089"></text>
    <text font-size="12.7998" style="fill: #000000;text-anchor:start;font-family:monospace;font-style:normal;font-weight:normal" x="261.808" y="974.326"> 6..*</text>
    <text font-size="12.7998" style="fill: #000000;text-anchor:start;font-family:monospace;font-style:normal;font-weight:normal" x="261.808" y="990.326"></text>
  </g>
  <g>
    <polyline style="fill: none; fill-opacity:0; stroke-width: 2; stroke: #000000" points="1257.91,818.944 1257.91,862.169 1258.64,862.169 1258.64,916.567 "/>
    <polygon style="fill: #000000" points="1257.91,793.772 1262.71,807.772 1257.91,821.772 1253.11,807.772 "/>
    <polygon style="fill: none; fill-opacity:0; stroke-width: 2; stroke: #000000" points="1257.91,793.772 1262.71,807.772 1257.91,821.772 1253.11,807.772 "/>
    <text font-size="12.7998" style="fill: #000000;text-anchor:middle;font-family:monospace;font-style:normal;font-weight:normal" x="1258.27" y="859.169"></text>
    <text font-size="12.7998" style="fill: #000000;text-anchor:start;font-family:monospace;font-style:normal;font-weight:normal" x="1268.91" y="805.772"> 1</text>
    <text font-size="12.7998" style="fill: #000000;text-anchor:start;font-family:monospace;font-style:normal;font-weight:normal" x="1268.91" y="821.772"></text>
    <text font-size="12.7998" style="fill: #000000;text-anchor:start;font-family:monospace;font-style:normal;font-weight:normal" x="1262.64" y="896.567"> 36..*</text>
    <text font-size="12.7998" style="fill: #000000;text-anchor:start;font-family:monospace;font-style:normal;font-weight:normal" x="1262.64" y="912.567"></text>
  </g>
  <g>
    <polyline style="fill: none; fill-opacity:0; stroke-width: 2; stroke: #000000" points="-1430.58,1145.7 -1261.13,1145.7 -1261.13,1150.92 -1080.49,1150.92 "/>
    <polygon style="fill: #000000" points="-1455.76,1145.7 -1441.76,1140.9 -1427.76,1145.7 -1441.76,1150.5 "/>
    <polygon style="fill: none; fill-opacity:0; stroke-width: 2; stroke: #000000" points="-1455.76,1145.7 -1441.76,1140.9 -1427.76,1145.7 -1441.76,1150.5 "/>
    <text font-size="12.7998" style="fill: #000000;text-anchor:start;font-family:monospace;font-style:normal;font-weight:normal" x="-1259.13" y="1145.31"></text>
    <text font-size="12.7998" style="fill: #000000;text-anchor:start;font-family:monospace;font-style:normal;font-weight:normal" x="-1423.76" y="1142.7">1</text>
    <text font-size="12.7998" style="fill: #000000;text-anchor:end;font-family:monospace;font-style:normal;font-weight:normal" x="-1084.49" y="1147.92">*</text>
  </g>
  <g>
    <path style="fill: none; fill-opacity:0; stroke-width: 2; stroke: #000000" d="M 294.12 296.436 C -140.355,267.98 -1056.34,238.666 -984.631,486.053"/>
    <polygon style="fill: #000000" points="-982.543,493.257 -990.13,485.044 -984.631,486.053 -980.525,482.26 "/>
    <polygon style="fill: none; fill-opacity:0; stroke-width: 2; stroke: #000000" points="-982.543,493.257 -990.13,485.044 -984.631,486.053 -980.525,482.26 "/>
  </g>
  <text font-size="12.8" style="fill: #000000;text-anchor:start;font-family:sans-serif;font-style:normal;font-weight:normal" x="-585.848" y="263.194">
    <tspan x="-585.848" y="263.194">Demande une autorisation</tspan>
  </text>
  <g>
    <path style="fill: none; fill-opacity:0; stroke-width: 2; stroke: #000000" d="M -704.306 606.402 C -582.582,830.888 -733.793,1150.92 -804.777,1150.92"/>
    <polygon style="fill: #000000" points="-812.277,1150.92 -802.277,1145.92 -804.777,1150.92 -802.277,1155.92 "/>
    <polygon style="fill: none; fill-opacity:0; stroke-width: 2; stroke: #000000" points="-812.277,1150.92 -802.277,1145.92 -804.777,1150.92 -802.277,1155.92 "/>
  </g>
  <text font-size="12.8" style="fill: #000000;text-anchor:start;font-family:sans-serif;font-style:normal;font-weight:normal" x="-655.64" y="891.952">
    <tspan x="-655.64" y="891.952">Transmet la demande d'autorisation</tspan>
  </text>
  <g>
    <path style="fill: none; fill-opacity:0; stroke-width: 2; stroke: #000000" d="M -286.555 636.442 C -288.737,838.07 -47.1369,1047.33 57.2975,1047.33"/>
    <polygon style="fill: #000000" points="64.7975,1047.33 54.7975,1052.33 57.2975,1047.33 54.7975,1042.33 "/>
    <polygon style="fill: none; fill-opacity:0; stroke-width: 2; stroke: #000000" points="64.7975,1047.33 54.7975,1052.33 57.2975,1047.33 54.7975,1042.33 "/>
  </g>
  <text font-size="12.8" style="fill: #000000;text-anchor:start;font-family:sans-serif;font-style:normal;font-weight:normal" x="-266.356" y="827.616">
    <tspan x="-266.356" y="827.616">Instancie</tspan>
  </text>
  <g>
    <path style="fill: none; fill-opacity:0; stroke-width: 2; stroke: #000000" d="M 311.273,207.963 A 1313.14,1313.14 0 0 0 -1540.62,1099.2"/>
    <polygon style="fill: #000000" points="-1542.27,1106.52 -1545.01,1095.68 -1540.66,1099.2 -1535.24,1097.83 "/>
    <polygon style="fill: none; fill-opacity:0; stroke-width: 2; stroke: #000000" points="-1542.27,1106.52 -1545.01,1095.68 -1540.66,1099.2 -1535.24,1097.83 "/>
  </g>
  <text font-size="12.8" style="fill: #000000;text-anchor:start;font-family:sans-serif;font-style:normal;font-weight:normal" x="-1448.96" y="359.166">
    <tspan x="-1448.96" y="359.166">Charge les règles et les types de fantômes</tspan>
  </text>
  <g>
    <path style="fill: none; fill-opacity:0; stroke-width: 2; stroke: #000000" d="M 675.676 305.968 C 879.358,302.806 816.689,903.024 723.517,1037.96"/>
    <polygon style="fill: #000000" points="719.256,1044.14 720.823,1033.07 723.517,1037.96 729.052,1038.75 "/>
    <polygon style="fill: none; fill-opacity:0; stroke-width: 2; stroke: #000000" points="719.256,1044.14 720.823,1033.07 723.517,1037.96 729.052,1038.75 "/>
  </g>
  <text font-size="12.8" style="fill: #000000;text-anchor:middle;font-family:sans-serif;font-style:normal;font-weight:normal" x="815.058" y="647.88">
    <tspan x="815.058" y="647.88">Demande de jouer/placer les pions</tspan>
    <tspan x="815.058" y="663.88">du joueur automatique</tspan>
  </text>
  <g>
    <rect style="fill: #ffffff" x="-1917.83" y="1341.17" width="160.95" height="28"/>
    <rect style="fill: none; fill-opacity:0; stroke-width: 2; stroke: #000000" x="-1917.83" y="1341.17" width="160.95" height="28"/>
    <text font-size="16" style="fill: #000000;text-anchor:middle;font-family:sans-serif;font-style:normal;font-weight:normal" x="-1837.35" y="1360.17">BoardCreationRule</text>
    <rect style="fill: #ffffff" x="-1917.83" y="1369.17" width="160.95" height="8"/>
    <rect style="fill: none; fill-opacity:0; stroke-width: 2; stroke: #000000" x="-1917.83" y="1369.17" width="160.95" height="8"/>
    <rect style="fill: #ffffff" x="-1917.83" y="1377.17" width="160.95" height="20"/>
    <rect style="fill: none; fill-opacity:0; stroke-width: 2; stroke: #000000" x="-1917.83" y="1377.17" width="160.95" height="20"/>
    <text font-size="12.8" style="fill: #000000;text-anchor:start;font-family:monospace;font-style:normal;font-weight:normal" x="-1914.83" y="1391.17">+getBoard(): Board</text>
  </g>
  <g>
    <polyline style="fill: none; fill-opacity:0; stroke-width: 2; stroke: #000000" points="-947.436,1222.11 -947.436,1274.58 -1837.35,1274.58 -1837.35,1340.26 "/>
    <polygon style="fill: #ffffff" points="-939.436,1222.11 -947.436,1206.11 -955.436,1222.11 "/>
    <polygon style="fill: none; fill-opacity:0; stroke-width: 2; stroke: #000000" points="-939.436,1222.11 -947.436,1206.11 -955.436,1222.11 "/>
  </g>
</svg>
